<svg width="137" height="24" viewBox="0 0 137 24" fill="none" xmlns="http://www.w3.org/2000/svg">
<path d="M22.5009 23.7797L19.8482 19.3706L17.2501 23.7797H14.1401L18.1355 17.1385L14.0631 10.9731H17.3123L19.921 15.0896L22.4091 10.9731H25.5192L21.5131 17.3398L25.6291 23.7797H22.5009Z" fill="#222626"/>
<path d="M35.7388 19.4262C35.7388 22.2436 33.6166 23.9999 30.8358 23.9999C28.3843 23.9999 26.3205 22.6461 26.1193 19.7007H28.772C28.9548 20.9812 29.9797 21.5303 31.0955 21.5303C32.4859 21.5303 33.086 20.5972 33.086 19.3899C33.086 18.1276 32.1529 17.341 30.8539 17.341C29.7747 17.341 29.061 17.8534 28.7317 18.4021H26.1962L27.0725 10.9744H35.4124L35.1341 13.4625H29.1684L28.9313 15.9206C28.9313 15.9206 29.5578 15.1826 31.4569 15.1826C33.7446 15.1817 35.7388 16.7178 35.7388 19.4262Z" fill="#222626"/>
<path d="M26.4334 9.37914C25.0199 3.87028 20.5368 0 11.233 0H0L1.52498 10.311C2.67211 19.6148 6.23039 22.608 12.5275 23.7102C12.5567 23.7148 12.7563 23.7432 12.7588 23.5098C12.7596 23.4258 12.7065 23.3534 12.6337 23.3221C8.3773 21.53 7.89161 15.6527 6.98239 9.75575L6.27896 5.05569H12.6913C18.6031 5.05569 23.1677 4.96225 26.0576 9.52608C26.1004 9.59029 26.1675 9.63762 26.2469 9.63762C26.3585 9.63762 26.4416 9.54707 26.4416 9.43553C26.4416 9.41536 26.4387 9.39642 26.4334 9.37914Z" fill="#5FAF2D"/>
<path d="M41.7389 23.8352V11.0295H46.6415C50.5381 11.0295 51.5988 12.8772 51.5988 14.871C51.5988 16.7002 50.3183 18.1091 48.4706 18.4931L52.5685 23.8348H50.5381L46.7332 18.8224H43.4038V23.8348H41.7389V23.8352ZM43.4034 12.5846V17.2678H46.6962C48.6171 17.2678 49.861 16.3347 49.861 14.8714C49.861 13.5543 49.0378 12.585 46.5863 12.585H43.4034V12.5846Z" fill="#222626"/>
<path d="M53.2275 19.0603C53.2275 16.2248 55.3312 14.1025 58.1667 14.1025C60.9841 14.1025 62.9228 16.005 62.9228 18.7857C62.9228 19.0603 62.9047 19.371 62.8862 19.6089H54.8003C54.8916 21.3101 56.3005 22.5539 58.1663 22.5539C59.5567 22.5539 60.4347 22.06 61.1665 20.889L62.5569 21.401C61.7884 23.0841 60.27 23.9986 58.1663 23.9986C55.2584 23.9999 53.2275 21.969 53.2275 19.0603ZM54.8739 18.1642H61.3496C61.2949 16.7191 59.886 15.5481 58.1667 15.5481C56.4475 15.5481 55.0752 16.6273 54.8739 18.1642Z" fill="#222626"/>
<path d="M64.4416 16.7558C65.0454 15.0909 66.5638 14.1582 68.6123 14.1582C71.1918 14.1582 72.4904 15.512 72.4904 18.2195V23.8353H70.9539V22.1889C70.46 23.2134 68.9963 24 67.4598 24C65.4842 24 64.1489 22.866 64.1489 21.1645C64.1489 18.9875 66.0332 18.1643 70.9539 18.1643C70.9539 16.408 70.204 15.6033 68.5757 15.6033C67.1487 15.6033 66.216 16.1705 65.8315 17.2683L64.4416 16.7558ZM70.9539 19.7741V19.4263C67.0392 19.4263 65.7587 19.8655 65.7587 21.164C65.7587 22.0239 66.5272 22.5544 67.771 22.5544C69.6368 22.5544 70.9539 21.402 70.9539 19.7741Z" fill="#222626"/>
<path d="M75.0151 10.481H76.5516V23.8353H75.0151V10.481Z" fill="#222626"/>
<path d="M82.9545 11.0295H92.1743V12.5846H84.619V16.554H91.6619V18.1091H84.619V22.2798H92.339V23.8348H82.9545V11.0295Z" fill="#222626"/>
<path d="M94.5164 16.8286C94.5164 15.2188 95.9068 14.1577 98.0471 14.1577C100.169 14.1577 101.669 15.127 102.053 16.7553L100.663 17.2674C100.352 16.1515 99.4004 15.5477 98.0105 15.5477C96.8946 15.5477 96.1262 16.0416 96.1262 16.7553C96.1262 18.9323 101.998 17.5053 101.998 21.2187C101.998 22.9199 100.59 23.9991 98.3764 23.9991C96.0167 23.9991 94.5164 23.1211 93.9858 21.4015L95.3762 20.8894C95.8335 22.0238 96.8032 22.6091 98.2665 22.6091C99.6383 22.6091 100.389 22.1152 100.389 21.2372C100.389 18.9874 94.5164 20.3412 94.5164 16.8286Z" fill="#222626"/>
<path d="M103.188 14.3224H104.797V11.8894H106.334V14.3224H108.95V15.7675H106.334V21.1093C106.334 22.1704 106.682 22.5544 107.578 22.5544C107.98 22.5544 108.456 22.4811 108.95 22.3531V23.7982C108.474 23.9081 107.76 23.9995 107.193 23.9995C105.474 23.9995 104.797 23.1763 104.797 20.9627V15.7675H103.187V14.3224H103.188Z" fill="#222626"/>
<path d="M110.523 16.7558C111.127 15.0909 112.645 14.1582 114.694 14.1582C117.273 14.1582 118.572 15.512 118.572 18.2195V23.8353H117.036V22.1889C116.542 23.2134 115.078 24 113.542 24C111.566 24 110.231 22.866 110.231 21.1645C110.231 18.9875 112.115 18.1643 117.036 18.1643C117.036 16.408 116.286 15.6033 114.657 15.6033C113.23 15.6033 112.298 16.1705 111.913 17.2683L110.523 16.7558ZM117.036 19.7741V19.4263C113.121 19.4263 111.84 19.8655 111.84 21.164C111.84 22.0239 112.609 22.5544 113.853 22.5544C115.718 22.5544 117.036 21.402 117.036 19.7741Z" fill="#222626"/>
<path d="M119.817 14.3224H121.426V11.8894H122.963V14.3224H125.579V15.7675H122.963V21.1093C122.963 22.1704 123.311 22.5544 124.207 22.5544C124.609 22.5544 125.085 22.4811 125.579 22.3531V23.7982C125.103 23.9081 124.389 23.9995 123.822 23.9995C122.103 23.9995 121.426 23.1763 121.426 20.9627V15.7675H119.816V14.3224H119.817Z" fill="#222626"/>
<path d="M126.622 19.0603C126.622 16.2248 128.726 14.1025 131.561 14.1025C134.379 14.1025 136.317 16.005 136.317 18.7857C136.317 19.0603 136.299 19.371 136.281 19.6089H128.195C128.286 21.3101 129.695 22.5539 131.561 22.5539C132.952 22.5539 133.829 22.06 134.561 20.889L135.952 21.401C135.183 23.0841 133.665 23.9986 131.561 23.9986C128.652 23.9999 126.622 21.969 126.622 19.0603ZM128.268 18.1642H134.744C134.689 16.7191 133.28 15.5481 131.561 15.5481C129.841 15.5481 128.47 16.6273 128.268 18.1642Z" fill="#222626"/>
</svg>
