<svg version="1.1" xmlns="http://www.w3.org/2000/svg" xmlns:xlink="http://www.w3.org/1999/xlink" x="0px" y="0px"
         viewBox="0 0 671.28 540.97" style="enable-background:new 0 0 671.28 540.97;" xml:space="preserve">
<style type="text/css">
        .st0{fill:#0F5A05;}
</style>
<g>
        <g>
                <g>
                        <path d="M386.58,400.33l-29-48.2l-28.4,48.2h-34l43.68-72.6l-44.52-67.4h35.52l28.52,45l27.2-45h34l-43.8,69.6l45,70.4H386.58z"
                                fill="#0F5A05" />
                        <path d="M531.3,352.74c0,30.8-23.2,50-53.6,50c-26.8,0-49.36-14.8-51.56-47h29c2,14,13.2,20,25.4,20
                                c15.2,0,21.76-10.2,21.76-23.4c0-13.8-10.2-22.4-24.4-22.4c-11.8,0-19.6,5.6-23.2,11.6h-27.72l9.58-81.2h91.17l-3.04,27.2h-65.22
                                l-2.59,26.87c0,0,6.85-8.07,27.61-8.07C509.5,306.34,531.3,323.13,531.3,352.74z" fill="#0F5A05" />
                </g>
                <path class="st0" d="M429.57,242.9c-15.45-60.22-64.46-102.53-166.17-102.53H140.6l16.67,112.72
                        c12.54,101.71,51.44,134.43,120.28,146.48c0.32,0.05,2.5,0.36,2.53-2.19c0.01-0.92-0.57-1.71-1.37-2.05
                        c-46.53-19.59-51.84-83.84-61.78-148.31l-7.69-51.38h70.1c64.63,0,114.53-1.02,146.12,48.87c0.47,0.7,1.2,1.22,2.07,1.22
                        c1.22,0,2.13-0.99,2.13-2.21C429.66,243.3,429.63,243.09,429.57,242.9z" fill="#0F5A05" />
        </g>
</g>
</svg>